<?xml version="1.0" encoding="UTF-8" standalone="no"?>
<!-- Created with Inkscape (http://www.inkscape.org/) -->

<svg
   version="1.1"
   id="svg2"
   width="666.66669"
   height="666.66669"
   viewBox="0 0 666.66669 666.66669"
   sodipodi:docname="3290584_486539-PH7BQU-489.svg"
   inkscape:version="1.2.2 (732a01da63, 2022-12-09)"
   xmlns:inkscape="http://www.inkscape.org/namespaces/inkscape"
   xmlns:sodipodi="http://sodipodi.sourceforge.net/DTD/sodipodi-0.dtd"
   xmlns="http://www.w3.org/2000/svg"
   xmlns:svg="http://www.w3.org/2000/svg">
  <defs
     id="defs6">
    <rect
       x="201.49254"
       y="607.79438"
       width="239.63516"
       height="71.310118"
       id="rect646" />
    <rect
       x="443.61527"
       y="617.74463"
       width="241.29354"
       height="54.72637"
       id="rect640" />
    <clipPath
       clipPathUnits="userSpaceOnUse"
       id="clipPath20">
      <path
         d="M 0,500 H 500 V 0 H 0 Z"
         id="path18" />
    </clipPath>
    <clipPath
       clipPathUnits="userSpaceOnUse"
       id="clipPath342">
      <path
         d="M 0,500 H 500 V 0 H 0 Z"
         id="path340" />
    </clipPath>
  </defs>
  <sodipodi:namedview
     id="namedview4"
     pagecolor="#ffffff"
     bordercolor="#000000"
     borderopacity="0.25"
     inkscape:showpageshadow="2"
     inkscape:pageopacity="0.0"
     inkscape:pagecheckerboard="0"
     inkscape:deskcolor="#d1d1d1"
     showgrid="false"
     inkscape:zoom="1.206"
     inkscape:cx="373.96353"
     inkscape:cy="44.361527"
     inkscape:window-width="1920"
     inkscape:window-height="991"
     inkscape:window-x="-9"
     inkscape:window-y="-9"
     inkscape:window-maximized="1"
     inkscape:current-layer="g10">
    <inkscape:page
       x="0"
       y="0"
       id="page8"
       width="666.66669"
       height="666.66669" />
  </sodipodi:namedview>
  <g
     id="g10"
     inkscape:groupmode="layer"
     inkscape:label="Page 1"
     transform="matrix(1.3333333,0,0,-1.3333333,0,666.66667)">
    <g
       id="g14">
      <g
         id="g16"
         clip-path="url(#clipPath20)">
        <g
           id="g22"
           transform="translate(426.0664,243.8623)">
          <path
             d="m 0,0 c -8.265,13.659 -18.54,27.721 -30.338,41.493 0.869,-0.667 1.749,-1.327 2.604,-2.004 3.004,-2.434 5.975,-4.881 8.759,-7.458 2.822,-2.547 5.484,-5.197 7.996,-7.914 2.54,-2.701 4.814,-5.54 6.915,-8.415 l 0.766,-1.086 0.383,-0.543 0.192,-0.271 c 0.058,-0.087 0.093,-0.157 0.14,-0.237 l 0.544,-0.92 c 0.176,-0.308 0.398,-0.6 0.515,-0.927 0.603,-1.26 1.109,-2.542 1.392,-3.894 C 0.428,5.372 0.445,2.731 0,0 m -216.039,-159.518 c -0.5,-0.216 -0.988,-0.424 -1.479,-0.634 -6.927,-2.871 -36.615,-13.998 -53.997,-1.708 -1.249,1.006 -2.543,2.116 -3.868,3.308 17.783,0.405 41.165,2.475 67.009,6.104 3.567,0.5 7.184,1.033 10.836,1.593 -6.691,-3.315 -12.869,-6.23 -18.501,-8.663 m -121.89,103.763 c -1.523,4.421 -2.978,8.95 -4.327,13.602 -1.605,5.596 -3.031,11.364 -4.254,17.282 -1.227,5.917 -2.216,11.994 -2.861,18.198 -0.653,6.203 -0.99,12.533 -0.88,18.932 0.218,12.775 2.251,25.921 7.291,38.185 2.512,6.121 5.768,11.995 9.804,17.401 4.064,5.396 8.881,10.28 14.37,14.613 2.118,1.681 4.317,3.278 6.589,4.796 -21.092,-40.716 -27.907,-95.585 -25.732,-143.009 m 357.277,12.987 c -2.307,8.497 -5.911,17.589 -10.63,27.022 0.011,0.021 0.023,0.043 0.034,0.065 1.832,3.759 3.408,7.817 4.326,12.271 0.918,4.432 1.118,9.332 0.066,14.171 -0.497,2.417 -1.359,4.77 -2.42,6.999 -0.237,0.578 -0.569,1.089 -0.869,1.624 l -0.929,1.587 -0.234,0.387 -0.225,0.327 -0.449,0.653 -0.901,1.307 c -2.45,3.432 -5.063,6.727 -7.882,9.787 -11.234,12.318 -24.467,22.458 -38.498,31.626 -10.868,7.072 -22.314,13.456 -34.178,19.291 -56.854,48.232 -128.936,80.474 -186.997,55.085 -14.528,-6.352 -26.686,-16.342 -36.749,-28.871 -10.859,-4.543 -21.03,-10.442 -29.949,-17.704 -6.244,-5.051 -11.863,-10.888 -16.518,-17.265 -4.642,-6.397 -8.338,-13.316 -11.117,-20.407 -2.786,-7.095 -4.668,-14.355 -5.844,-21.547 -1.176,-7.197 -1.653,-14.328 -1.639,-21.293 0.016,-6.967 0.523,-13.77 1.363,-20.375 0.833,-6.61 2.028,-13.019 3.467,-19.219 1.436,-6.201 3.082,-12.205 4.909,-18.001 1.845,-5.79 3.84,-11.38 5.932,-16.777 3.62,-9.211 7.547,-17.83 11.642,-25.881 5.306,-36.917 16.396,-64.433 29.85,-68.559 4.474,-1.371 11.989,-2.08 21.802,-2.153 7.19,-6.853 20.074,-16.385 41.498,-13.123 3.207,0.328 7.045,0.95 11.421,2.002 4.847,1.158 10.339,2.825 16.397,4.979 6.065,2.144 12.683,4.801 19.832,7.89 7.119,3.063 14.748,6.56 22.874,10.442 32.101,5.904 65.579,13.872 95.409,23.74 59.325,19.602 104.228,46.692 95.206,79.92"
             style="fill:#d2f5fc;fill-opacity:1;fill-rule:nonzero;stroke:none"
             id="path24" />
        </g>
        <g
           id="g26"
           transform="translate(134.0991,391.8408)">
          <path
             d="m 0,0 c 3.816,-6.609 -2.148,-17.196 -13.321,-23.647 -11.173,-6.451 -23.324,-6.322 -27.139,0.287 -3.816,6.61 2.147,17.197 13.32,23.648 C -15.967,6.738 -3.816,6.609 0,0"
             style="fill:#d2f5fc;fill-opacity:1;fill-rule:nonzero;stroke:none"
             id="path28" />
        </g>
        <g
           id="g30"
           transform="translate(233.6035,406.0322)">
          <path
             d="m 0,0 c -0.644,-4.328 -7.096,-6.955 -14.412,-5.867 -7.316,1.088 -12.724,5.478 -12.081,9.806 0.643,4.328 7.096,6.954 14.412,5.867 C -4.766,8.718 0.644,4.328 0,0"
             style="fill:#d2f5fc;fill-opacity:1;fill-rule:nonzero;stroke:none"
             id="path32" />
        </g>
        <g
           id="g34"
           transform="translate(292.1396,81.8096)">
          <path
             d="m 0,0 c 1.786,-5.79 -4.701,-12.932 -14.488,-15.951 -9.788,-3.019 -19.17,-0.773 -20.956,5.016 -1.786,5.79 4.7,12.932 14.488,15.952 C -11.168,8.035 -1.786,5.789 0,0"
             style="fill:#d2f5fc;fill-opacity:1;fill-rule:nonzero;stroke:none"
             id="path36" />
        </g>
        <g
           id="g38"
           transform="translate(326.4487,96.2715)">
          <path
             d="m 0,0 c 1.066,-3.457 -2.807,-7.721 -8.65,-9.523 -5.844,-1.803 -11.446,-0.462 -12.513,2.995 -1.066,3.457 2.807,7.72 8.651,9.523 C -6.668,4.798 -1.066,3.457 0,0"
             style="fill:#d2f5fc;fill-opacity:1;fill-rule:nonzero;stroke:none"
             id="path40" />
        </g>
        <g
           id="g42"
           transform="translate(377.3125,369.0708)">
          <path
             d="m 0,0 c -8.524,0 -15.434,6.91 -15.434,15.434 0,8.524 6.91,15.434 15.434,15.434 8.524,0 15.434,-6.91 15.434,-15.434 C 15.434,6.91 8.524,0 0,0 m 37.38,24.804 h -7.673 c -0.547,1.741 -1.243,3.413 -2.076,5.006 l 5.43,5.429 c 1.346,1.351 1.346,3.536 0,4.883 l -8.374,8.368 c -1.346,1.351 -3.531,1.351 -4.877,0 l -5.43,-5.429 c -1.593,0.833 -3.27,1.533 -5.01,2.081 v 7.673 c 0,1.909 -1.544,3.452 -3.453,3.452 H -5.918 c -1.909,0 -3.452,-1.543 -3.452,-3.452 v -7.673 c -1.741,-0.548 -3.418,-1.248 -5.01,-2.081 l -5.43,5.429 c -1.346,1.351 -3.531,1.351 -4.877,0 l -8.374,-8.368 c -1.346,-1.347 -1.346,-3.532 0,-4.883 l 5.43,-5.429 c -0.834,-1.593 -1.529,-3.265 -2.077,-5.006 h -7.673 c -1.909,0 -3.452,-1.549 -3.452,-3.452 V 9.517 c 0,-1.909 1.543,-3.453 3.452,-3.453 h 7.673 c 0.548,-1.74 1.248,-3.417 2.077,-5.01 l -5.43,-5.429 c -1.346,-1.347 -1.346,-3.532 0,-4.883 l 8.374,-8.368 c 1.346,-1.347 3.531,-1.347 4.877,0 l 5.43,5.429 c 1.592,-0.828 3.269,-1.529 5.01,-2.076 v -7.674 c 0,-1.908 1.543,-3.452 3.452,-3.452 H 5.917 c 1.909,0 3.453,1.544 3.453,3.452 v 7.674 c 1.74,0.547 3.417,1.248 5.01,2.076 l 5.43,-5.429 c 1.346,-1.347 3.531,-1.347 4.877,0 l 8.374,8.368 c 1.346,1.351 1.346,3.536 0,4.883 l -5.43,5.429 c 0.828,1.593 1.529,3.27 2.076,5.01 h 7.673 c 1.909,0 3.453,1.544 3.453,3.453 v 11.835 c 0,1.903 -1.544,3.452 -3.453,3.452"
             style="fill:#2b2c84;fill-opacity:1;fill-rule:nonzero;stroke:none"
             id="path44" />
        </g>
        <g
           id="g46"
           transform="translate(377.312,408.8516)">
          <path
             d="m 0,0 c -13.424,0 -24.346,-10.922 -24.346,-24.347 0,-13.424 10.922,-24.346 24.346,-24.346 13.425,0 24.347,10.922 24.347,24.346 C 24.347,-10.922 13.425,0 0,0 m 0,-51.344 c -14.887,0 -26.998,12.111 -26.998,26.997 0,14.887 12.111,26.998 26.998,26.998 14.887,0 26.998,-12.111 26.998,-26.998 0,-14.886 -12.111,-26.997 -26.998,-26.997"
             style="fill:#ffffff;fill-opacity:1;fill-rule:nonzero;stroke:none"
             id="path48" />
        </g>
        <g
           id="g50"
           transform="translate(295.229,372.4707)">
          <path
             d="m 0,0 c -5.971,0 -10.812,4.84 -10.812,10.811 0,5.971 4.841,10.812 10.812,10.812 5.971,0 10.811,-4.841 10.811,-10.812 C 10.811,4.84 5.971,0 0,0 m 26.185,17.375 h -5.376 c -0.383,1.219 -0.87,2.39 -1.454,3.506 l 3.803,3.803 c 0.943,0.947 0.943,2.477 0,3.42 l -5.866,5.862 c -0.942,0.947 -2.473,0.947 -3.416,0 l -3.803,-3.803 c -1.116,0.584 -2.29,1.074 -3.51,1.458 v 5.375 c 0,1.337 -1.081,2.418 -2.417,2.418 h -8.292 c -1.336,0 -2.417,-1.081 -2.417,-2.418 v -5.375 c -1.22,-0.384 -2.395,-0.874 -3.51,-1.458 l -3.803,3.803 c -0.943,0.947 -2.474,0.947 -3.417,0 l -5.865,-5.862 c -0.944,-0.943 -0.944,-2.473 0,-3.42 l 3.803,-3.803 c -0.584,-1.116 -1.071,-2.287 -1.454,-3.506 h -5.376 c -1.336,0 -2.418,-1.085 -2.418,-2.418 V 6.666 c 0,-1.337 1.082,-2.418 2.418,-2.418 h 5.376 c 0.383,-1.22 0.873,-2.394 1.454,-3.51 l -3.803,-3.803 c -0.944,-0.943 -0.944,-2.473 0,-3.42 l 5.865,-5.862 c 0.943,-0.943 2.474,-0.943 3.417,0 l 3.803,3.804 c 1.115,-0.581 2.29,-1.071 3.51,-1.455 v -5.375 c 0,-1.337 1.081,-2.418 2.417,-2.418 h 8.292 c 1.336,0 2.417,1.081 2.417,2.418 v 5.375 c 1.22,0.384 2.394,0.874 3.51,1.455 l 3.803,-3.804 c 0.943,-0.943 2.474,-0.943 3.416,0 l 5.866,5.862 c 0.943,0.947 0.943,2.477 0,3.42 l -3.803,3.803 c 0.58,1.116 1.071,2.29 1.454,3.51 h 5.376 c 1.336,0 2.418,1.081 2.418,2.418 v 8.291 c 0,1.333 -1.082,2.418 -2.418,2.418"
             style="fill:#ffd234;fill-opacity:1;fill-rule:nonzero;stroke:none"
             id="path52" />
        </g>
        <g
           id="g54"
           transform="translate(295.229,400.3359)">
          <path
             d="m 0,0 c -9.404,0 -17.054,-7.65 -17.054,-17.054 0,-9.404 7.65,-17.054 17.054,-17.054 9.404,0 17.054,7.65 17.054,17.054 C 17.054,-7.65 9.404,0 0,0 m 0,-35.965 c -10.428,0 -18.912,8.483 -18.912,18.911 0,10.428 8.484,18.911 18.912,18.911 10.428,0 18.912,-8.483 18.912,-18.911 0,-10.428 -8.484,-18.911 -18.912,-18.911"
             style="fill:#ffffff;fill-opacity:1;fill-rule:nonzero;stroke:none"
             id="path56" />
        </g>
        <g
           id="g58"
           transform="translate(375.1631,92.2988)">
          <path
             d="m 0,0 c -8.352,0 -15.122,6.771 -15.122,15.121 0,8.352 6.77,15.122 15.122,15.122 8.352,0 15.122,-6.77 15.122,-15.122 C 15.122,6.771 8.352,0 0,0 m 36.624,24.302 h -7.519 c -0.536,1.705 -1.217,3.344 -2.033,4.904 l 5.319,5.319 c 1.319,1.325 1.319,3.464 0,4.784 l -8.204,8.199 c -1.319,1.324 -3.459,1.324 -4.778,0 l -5.32,-5.32 c -1.561,0.817 -3.203,1.502 -4.909,2.04 v 7.517 c 0,1.87 -1.512,3.382 -3.382,3.382 H -5.798 c -1.87,0 -3.382,-1.512 -3.382,-3.382 v -7.517 c -1.706,-0.538 -3.348,-1.223 -4.909,-2.04 l -5.32,5.32 c -1.319,1.324 -3.459,1.324 -4.778,0 l -8.204,-8.199 c -1.319,-1.32 -1.319,-3.459 0,-4.784 l 5.32,-5.319 c -0.817,-1.56 -1.498,-3.199 -2.034,-4.904 h -7.519 c -1.869,0 -3.382,-1.518 -3.382,-3.382 V 9.323 c 0,-1.869 1.513,-3.382 3.382,-3.382 h 7.519 c 0.536,-1.706 1.222,-3.348 2.034,-4.909 l -5.32,-5.319 c -1.319,-1.319 -1.319,-3.459 0,-4.783 l 8.204,-8.2 c 1.319,-1.319 3.459,-1.319 4.778,0 l 5.32,5.32 c 1.561,-0.812 3.203,-1.497 4.909,-2.034 v -7.518 c 0,-1.87 1.512,-3.383 3.382,-3.383 H 5.798 c 1.87,0 3.382,1.513 3.382,3.383 v 7.518 c 1.706,0.537 3.348,1.222 4.909,2.034 l 5.32,-5.32 c 1.319,-1.319 3.459,-1.319 4.778,0 l 8.204,8.2 c 1.319,1.324 1.319,3.464 0,4.783 l -5.319,5.319 c 0.811,1.561 1.497,3.203 2.033,4.909 h 7.519 c 1.87,0 3.382,1.513 3.382,3.382 V 20.92 c 0,1.864 -1.512,3.382 -3.382,3.382"
             style="fill:#ff9a00;fill-opacity:1;fill-rule:nonzero;stroke:none"
             id="path60" />
        </g>
        <g
           id="g62"
           transform="translate(375.1631,131.2734)">
          <path
             d="m 0,0 c -13.153,0 -23.854,-10.7 -23.854,-23.854 0,-13.152 10.701,-23.852 23.854,-23.852 13.153,0 23.854,10.7 23.854,23.852 C 23.854,-10.7 13.153,0 0,0 m 0,-50.304 c -14.585,0 -26.451,11.866 -26.451,26.45 0,14.586 11.866,26.452 26.451,26.452 14.585,0 26.451,-11.866 26.451,-26.452 0,-14.584 -11.866,-26.45 -26.451,-26.45"
             style="fill:#ffffff;fill-opacity:1;fill-rule:nonzero;stroke:none"
             id="path64" />
        </g>
        <g
           id="g66"
           transform="translate(100.2095,342.2964)">
          <path
             d="m 0,0 c -6.864,0 -12.429,5.564 -12.429,12.429 0,6.863 5.565,12.428 12.429,12.428 6.864,0 12.428,-5.565 12.428,-12.428 C 12.428,5.564 6.864,0 0,0 m 30.101,19.974 h -6.18 c -0.44,1.401 -1,2.748 -1.671,4.03 l 4.372,4.372 c 1.084,1.089 1.084,2.848 0,3.932 l -6.743,6.739 c -1.084,1.088 -2.843,1.088 -3.927,0 L 11.58,34.675 c -1.283,0.671 -2.633,1.235 -4.035,1.676 v 6.178 c 0,1.537 -1.243,2.78 -2.78,2.78 h -9.531 c -1.536,0 -2.779,-1.243 -2.779,-2.78 v -6.178 c -1.402,-0.441 -2.752,-1.005 -4.035,-1.676 v 0 l -4.372,4.372 c -1.084,1.088 -2.843,1.088 -3.927,0 l -6.743,-6.739 c -1.085,-1.084 -1.085,-2.843 0,-3.932 l 4.372,-4.372 c -0.671,-1.282 -1.231,-2.629 -1.672,-4.03 h -6.179 c -1.537,0 -2.78,-1.247 -2.78,-2.78 v -9.53 c 0,-1.538 1.243,-2.78 2.78,-2.78 h 6.179 c 0.441,-1.402 1.005,-2.752 1.672,-4.035 l -4.372,-4.372 c -1.085,-1.084 -1.085,-2.844 0,-3.932 l 6.743,-6.738 c 1.084,-1.084 2.843,-1.084 3.927,0 l 4.372,4.372 c 1.283,-0.667 2.633,-1.231 4.035,-1.672 v -6.179 c 0,-1.537 1.243,-2.78 2.779,-2.78 h 9.531 c 1.537,0 2.78,1.243 2.78,2.78 v 6.179 c 1.402,0.441 2.752,1.005 4.035,1.672 l 4.372,-4.372 c 1.084,-1.084 2.843,-1.084 3.927,0 l 6.743,6.738 c 1.084,1.088 1.084,2.848 0,3.932 L 22.25,0.849 c 0.667,1.283 1.231,2.633 1.671,4.035 h 6.18 c 1.536,0 2.779,1.242 2.779,2.78 v 9.53 c 0,1.533 -1.243,2.78 -2.779,2.78"
             style="fill:#008489;fill-opacity:1;fill-rule:nonzero;stroke:none"
             id="path68" />
        </g>
        <g
           id="g70"
           transform="translate(100.209,374.3301)">
          <path
             d="m 0,0 c -10.81,0 -19.605,-8.795 -19.605,-19.605 0,-10.811 8.795,-19.605 19.605,-19.605 10.811,0 19.605,8.794 19.605,19.605 C 19.605,-8.795 10.811,0 0,0 m 0,-41.345 c -11.987,0 -21.74,9.752 -21.74,21.74 0,11.987 9.753,21.74 21.74,21.74 11.988,0 21.74,-9.753 21.74,-21.74 0,-11.988 -9.752,-21.74 -21.74,-21.74"
             style="fill:#ffffff;fill-opacity:1;fill-rule:nonzero;stroke:none"
             id="path72" />
        </g>
        <g
           id="g74"
           transform="translate(170.7725,349.0752)">
          <path
             d="m 0,0 c -7.512,0 -13.623,6.111 -13.623,13.623 v 6.268 h 4.478 v -6.268 c 0,-5.043 4.103,-9.145 9.145,-9.145 5.042,0 9.145,4.102 9.145,9.145 v 19.805 c 0,7.511 6.111,13.622 13.623,13.622 h 5.003 c 7.512,0 13.623,-6.111 13.623,-13.622 v -50.463 h -4.478 v 50.463 c 0,5.042 -4.102,9.144 -9.145,9.144 h -5.003 c -5.043,0 -9.145,-4.102 -9.145,-9.144 V 13.623 C 13.623,6.111 7.512,0 0,0"
             style="fill:#ffffff;fill-opacity:1;fill-rule:nonzero;stroke:none"
             id="path76" />
        </g>
        <g
           id="g78"
           transform="translate(181.2236,413.6484)">
          <path
             d="m 0,0 c 0,12.572 -10.625,22.663 -23.386,21.781 -10.689,-0.738 -19.382,-9.345 -20.216,-20.028 -0.399,-5.115 0.966,-9.894 3.551,-13.794 4.398,-6.636 6.744,-14.42 6.744,-22.381 v -0.001 h 22.944 c 0,7.904 2.232,15.687 6.649,22.241 C -1.369,-8.703 0,-4.512 0,0"
             style="fill:#ff9a00;fill-opacity:1;fill-rule:nonzero;stroke:none"
             id="path80" />
        </g>
        <path
           d="m 167.486,407.792 h -3.711 v 3.6 h 3.711 z m -12.484,0 h -3.711 v 3.6 h 3.711 z m 6.748,5.625 v -5.625 h -0.787 -3.149 -0.787 v 5.625 h -7.76 v -7.649 h 5.735 v -29.354 h 2.025 v 29.354 h 0.787 3.149 0.787 v -29.354 h 2.025 v 29.354 h 5.736 v 7.649 z"
           style="fill:#ffffff;fill-opacity:1;fill-rule:nonzero;stroke:none"
           id="path82" />
        <path
           d="M 164.787,363.143 H 153.99 v 5.173 h 10.797 z"
           style="fill:#004d47;fill-opacity:1;fill-rule:nonzero;stroke:none"
           id="path84" />
        <g
           id="g86"
           transform="translate(166.0942,365.9541)">
          <path
             d="m 0,0 h -13.411 c -2.632,0 -4.767,2.134 -4.767,4.766 v 8.505 H 4.766 V 4.766 C 4.766,2.134 2.632,0 0,0"
             style="fill:#008489;fill-opacity:1;fill-rule:nonzero;stroke:none"
             id="path88" />
        </g>
        <g
           id="g90"
           transform="translate(380.375,300.9082)">
          <path
             d="m 0,0 -30.741,-5.637 6.743,-7.925 -20.445,-17.396 -23.78,26.548 -40.478,-34.166 6.739,-7.984 32.725,27.623 23.807,-26.579 28.202,23.997 6.743,-7.924 z"
             style="fill:#f15381;fill-opacity:1;fill-rule:nonzero;stroke:none"
             id="path92" />
        </g>
        <g
           id="g94"
           transform="translate(364.2905,329.0947)">
          <path
             d="m 0,0 -24.487,-4.49 5.371,-6.312 -16.286,-13.858 -18.942,21.148 -32.243,-27.216 5.368,-6.359 26.068,22.002 18.963,-21.171 22.465,19.115 5.371,-6.312 z"
             style="fill:#0052ff;fill-opacity:1;fill-rule:nonzero;stroke:none"
             id="path96" />
        </g>
        <g
           id="g98"
           transform="translate(429.5918,283.2207)">
          <path
             d="m 0,0 c -1.237,0 -2.239,-1.002 -2.239,-2.239 v -2.24 c 0,-1.236 1.002,-2.238 2.239,-2.238 1.237,0 2.239,1.002 2.239,2.238 v 2.24 C 2.239,-1.002 1.237,0 0,0"
             style="fill:#ffffff;fill-opacity:1;fill-rule:nonzero;stroke:none"
             id="path100" />
        </g>
        <g
           id="g102"
           transform="translate(429.5918,228.1953)">
          <path
             d="m 0,0 c -1.237,0 -2.239,-1.002 -2.239,-2.238 v -4.8 c 0,-1.236 1.002,-2.239 2.239,-2.239 1.237,0 2.239,1.003 2.239,2.239 v 4.8 C 2.239,-1.002 1.237,0 0,0"
             style="fill:#ffffff;fill-opacity:1;fill-rule:nonzero;stroke:none"
             id="path104" />
        </g>
        <g
           id="g106"
           transform="translate(429.5918,266.5854)">
          <path
             d="m 0,0 c -1.237,0 -2.239,-1.002 -2.239,-2.239 v -4.799 c 0,-1.236 1.002,-2.238 2.239,-2.238 1.237,0 2.239,1.002 2.239,2.238 v 4.799 C 2.239,-1.002 1.237,0 0,0"
             style="fill:#ffffff;fill-opacity:1;fill-rule:nonzero;stroke:none"
             id="path108" />
        </g>
        <g
           id="g110"
           transform="translate(429.5918,247.3906)">
          <path
             d="m 0,0 c -1.237,0 -2.239,-1.003 -2.239,-2.239 v -4.799 c 0,-1.236 1.002,-2.239 2.239,-2.239 1.237,0 2.239,1.003 2.239,2.239 v 4.799 C 2.239,-1.003 1.237,0 0,0"
             style="fill:#ffffff;fill-opacity:1;fill-rule:nonzero;stroke:none"
             id="path112" />
        </g>
        <g
           id="g114"
           transform="translate(429.5918,209.001)">
          <path
             d="m 0,0 c -1.237,0 -2.239,-1.003 -2.239,-2.239 -1.237,0 -2.24,-1.003 -2.24,-2.24 0,-1.237 1.003,-2.239 2.24,-2.239 h 4.478 v 4.479 C 2.239,-1.003 1.237,0 0,0"
             style="fill:#ffffff;fill-opacity:1;fill-rule:nonzero;stroke:none"
             id="path116" />
        </g>
        <g
           id="g118"
           transform="translate(367.6011,206.7617)">
          <path
             d="m 0,0 h -3.983 c -1.237,0 -2.24,-1.003 -2.24,-2.239 0,-1.238 1.003,-2.24 2.24,-2.24 H 0 c 1.237,0 2.239,1.002 2.239,2.24 C 2.239,-1.003 1.237,0 0,0"
             style="fill:#ffffff;fill-opacity:1;fill-rule:nonzero;stroke:none"
             id="path120" />
        </g>
        <g
           id="g122"
           transform="translate(383.5352,206.7617)">
          <path
             d="m 0,0 h -3.984 c -1.236,0 -2.239,-1.003 -2.239,-2.239 0,-1.238 1.003,-2.24 2.239,-2.24 H 0 c 1.237,0 2.239,1.002 2.239,2.24 C 2.239,-1.003 1.237,0 0,0"
             style="fill:#ffffff;fill-opacity:1;fill-rule:nonzero;stroke:none"
             id="path124" />
        </g>
        <g
           id="g126"
           transform="translate(399.4687,206.7617)">
          <path
             d="m 0,0 h -3.984 c -1.236,0 -2.239,-1.003 -2.239,-2.239 0,-1.238 1.003,-2.24 2.239,-2.24 H 0 c 1.237,0 2.239,1.002 2.239,2.24 C 2.239,-1.003 1.237,0 0,0"
             style="fill:#ffffff;fill-opacity:1;fill-rule:nonzero;stroke:none"
             id="path128" />
        </g>
        <g
           id="g130"
           transform="translate(415.4023,206.7617)">
          <path
             d="m 0,0 h -3.983 c -1.237,0 -2.24,-1.003 -2.24,-2.239 0,-1.238 1.003,-2.24 2.24,-2.24 H 0 c 1.237,0 2.239,1.002 2.239,2.24 C 2.239,-1.003 1.237,0 0,0"
             style="fill:#ffffff;fill-opacity:1;fill-rule:nonzero;stroke:none"
             id="path132" />
        </g>
        <g
           id="g134"
           transform="translate(351.6675,206.7617)">
          <path
             d="m 0,0 h -2.239 c -1.237,0 -2.24,-1.003 -2.24,-2.239 0,-1.238 1.003,-2.24 2.24,-2.24 H 0 c 1.237,0 2.239,1.002 2.239,2.24 C 2.239,-1.003 1.237,0 0,0"
             style="fill:#ffffff;fill-opacity:1;fill-rule:nonzero;stroke:none"
             id="path136" />
        </g>
        <g
           id="g138"
           transform="translate(150.6836,199.3994)">
          <path
             d="m 0,0 -98.245,-29.64 -21.139,70.069 98.245,29.639 z"
             style="fill:#0052ff;fill-opacity:1;fill-rule:nonzero;stroke:none"
             id="path140" />
        </g>
        <g
           id="g142"
           transform="translate(142.9297,202.6045)">
          <path
             d="m 0,0 -85.803,-25.886 -15.937,52.825 85.802,25.887 z"
             style="fill:#ffffff;fill-opacity:1;fill-rule:nonzero;stroke:none"
             id="path144" />
        </g>
        <g
           id="g146"
           transform="translate(107.625,254.853)">
          <path
             d="m 0,0 c 0.375,-1.244 -0.329,-2.557 -1.573,-2.932 -1.244,-0.375 -2.556,0.329 -2.932,1.573 -0.375,1.244 0.329,2.557 1.573,2.932 C -1.688,1.948 -0.375,1.244 0,0"
             style="fill:#ffffff;fill-opacity:1;fill-rule:nonzero;stroke:none"
             id="path148" />
        </g>
        <g
           id="g150"
           transform="translate(116.5806,257.5552)">
          <path
             d="m 0,0 c 0.375,-1.244 -0.329,-2.557 -1.573,-2.932 -1.244,-0.375 -2.556,0.329 -2.932,1.573 -0.375,1.244 0.329,2.556 1.573,2.932 C -1.688,1.948 -0.375,1.244 0,0"
             style="fill:#ffffff;fill-opacity:1;fill-rule:nonzero;stroke:none"
             id="path152" />
        </g>
        <g
           id="g154"
           transform="translate(125.5361,260.2568)">
          <path
             d="m 0,0 c 0.375,-1.244 -0.329,-2.557 -1.573,-2.932 -1.243,-0.375 -2.556,0.329 -2.931,1.573 -0.376,1.244 0.328,2.557 1.572,2.932 C -1.687,1.948 -0.375,1.244 0,0"
             style="fill:#ffffff;fill-opacity:1;fill-rule:nonzero;stroke:none"
             id="path156" />
        </g>
        <g
           id="g158"
           transform="translate(77.5952,189.1602)">
          <path
             d="m 0,0 -10.01,-3.021 -5.54,18.364 10.01,3.02 z"
             style="fill:#ffd234;fill-opacity:1;fill-rule:nonzero;stroke:none"
             id="path160" />
        </g>
        <g
           id="g162"
           transform="translate(94.7319,194.3301)">
          <path
             d="m 0,0 -10.01,-3.021 -7.974,26.431 10.01,3.021 z"
             style="fill:#ffd234;fill-opacity:1;fill-rule:nonzero;stroke:none"
             id="path164" />
        </g>
        <g
           id="g166"
           transform="translate(111.8687,199.5)">
          <path
             d="m 0,0 -10.01,-3.02 -5.5,18.23 10.01,3.02 z"
             style="fill:#ffd234;fill-opacity:1;fill-rule:nonzero;stroke:none"
             id="path168" />
        </g>
        <g
           id="g170"
           transform="translate(129.0059,204.6699)">
          <path
             d="m 0,0 -10.011,-3.02 -12.471,41.338 10.01,3.021 z"
             style="fill:#ffd234;fill-opacity:1;fill-rule:nonzero;stroke:none"
             id="path172" />
        </g>
        <g
           id="g174"
           transform="translate(52.0737,226.2402)">
          <path
             d="m 0,0 c 0.309,-1.021 -0.27,-2.1 -1.292,-2.408 -1.022,-0.309 -2.1,0.27 -2.408,1.292 -0.308,1.021 0.27,2.099 1.292,2.408 C -1.386,1.601 -0.308,1.021 0,0"
             style="fill:#ebebeb;fill-opacity:1;fill-rule:nonzero;stroke:none"
             id="path176" />
        </g>
        <g
           id="g178"
           transform="translate(75.4053,232.4893)">
          <path
             d="m 0,0 -20.7,-6.245 -0.437,1.448 20.7,6.245 z"
             style="fill:#ebebeb;fill-opacity:1;fill-rule:nonzero;stroke:none"
             id="path180" />
        </g>
        <g
           id="g182"
           transform="translate(53.6641,220.9687)">
          <path
             d="m 0,0 c 0.309,-1.021 -0.27,-2.101 -1.292,-2.408 -1.021,-0.309 -2.1,0.269 -2.408,1.292 -0.308,1.021 0.27,2.099 1.292,2.408 C -1.386,1.601 -0.308,1.021 0,0"
             style="fill:#ebebeb;fill-opacity:1;fill-rule:nonzero;stroke:none"
             id="path184" />
        </g>
        <g
           id="g186"
           transform="translate(76.9956,227.2178)">
          <path
             d="m 0,0 -20.7,-6.245 -0.437,1.448 20.7,6.244 z"
             style="fill:#ebebeb;fill-opacity:1;fill-rule:nonzero;stroke:none"
             id="path188" />
        </g>
        <g
           id="g190"
           transform="translate(160.4448,306.0557)">
          <path
             d="M 0,0 6.435,-4.812 H 0 Z m -34.523,-14.278 v 2.901 l 12.268,6.375 3.102,-2.694 c 0.215,-0.186 0.482,-0.28 0.749,-0.28 0.267,0 0.534,0.094 0.749,0.28 l 3.102,2.695 12.268,-6.365 v -2.912 z m 11.011,29.733 9.01,-6.153 h -9.01 z M -2.285,5.654 V -8.792 l -10.412,5.402 z m -2.049,3.648 h -6.116 l -10.505,7.174 H 6.17 Z M -21.362,-2.751 c -0.001,0 -0.002,10e-4 -0.002,10e-4 l -11.244,9.767 h 7.932 c 0.008,0 0.014,-0.004 0.022,-0.004 0.008,0 0.014,0.004 0.022,0.004 h 13.804 c 0.01,0 0.02,-0.004 0.03,-0.004 0.013,0 0.025,0.004 0.038,0.004 h 6.561 l -11.244,-9.766 -0.004,-0.003 -2.957,-2.569 z M -34.523,5.654 -24.11,-3.391 -34.523,-8.802 Z M 0,2.853 v 5.306 c 0,0.057 -0.024,0.105 -0.032,0.16 -0.011,0.08 -0.019,0.16 -0.048,0.237 -0.029,0.079 -0.076,0.145 -0.122,0.215 -0.029,0.044 -0.042,0.096 -0.078,0.137 -0.009,0.01 -0.021,0.014 -0.03,0.023 -0.058,0.063 -0.129,0.106 -0.2,0.155 -0.014,0.009 -0.027,0.022 -0.041,0.032 l 9.278,6.337 V -3.674 Z m 10.986,-8.937 c 0.005,0.044 0.026,0.084 0.026,0.129 v 23.573 c 0,0.038 -0.018,0.07 -0.022,0.108 -0.007,0.076 -0.022,0.148 -0.045,0.223 -0.024,0.076 -0.052,0.146 -0.091,0.215 -0.018,0.031 -0.021,0.067 -0.041,0.098 -0.02,0.029 -0.05,0.043 -0.072,0.07 -0.052,0.063 -0.108,0.116 -0.171,0.166 -0.055,0.044 -0.109,0.083 -0.17,0.115 -0.067,0.036 -0.135,0.06 -0.209,0.083 -0.071,0.02 -0.139,0.035 -0.212,0.042 C 9.941,18.742 9.908,18.76 9.87,18.76 h -34.524 c -0.037,0 -0.068,-0.017 -0.104,-0.021 -0.077,-0.007 -0.149,-0.022 -0.222,-0.044 -0.071,-0.022 -0.137,-0.046 -0.201,-0.08 -0.063,-0.033 -0.119,-0.073 -0.175,-0.118 -0.063,-0.05 -0.118,-0.102 -0.169,-0.164 -0.022,-0.027 -0.053,-0.042 -0.072,-0.071 -0.021,-0.031 -0.024,-0.067 -0.042,-0.098 -0.038,-0.069 -0.067,-0.139 -0.09,-0.215 -0.023,-0.075 -0.038,-0.147 -0.045,-0.223 -0.004,-0.038 -0.022,-0.07 -0.022,-0.108 V 9.302 h -9.87 c -0.013,0 -0.024,-0.008 -0.037,-0.008 -0.087,-0.002 -0.168,-0.028 -0.252,-0.051 -0.061,-0.016 -0.125,-0.023 -0.181,-0.049 -0.06,-0.027 -0.111,-0.073 -0.166,-0.111 -0.069,-0.048 -0.139,-0.09 -0.196,-0.152 -0.008,-0.009 -0.021,-0.013 -0.03,-0.023 -0.036,-0.041 -0.049,-0.093 -0.078,-0.137 -0.045,-0.07 -0.092,-0.136 -0.122,-0.215 -0.029,-0.077 -0.036,-0.157 -0.048,-0.237 -0.008,-0.055 -0.032,-0.103 -0.032,-0.16 V -15.42 c 0,-0.631 0.512,-1.142 1.142,-1.142 h 34.524 c 0.631,0 1.142,0.511 1.142,1.142 v 4.582 c 0.011,0.076 0.005,0.149 0,0.225 v 3.516 h 9.87 c 0.171,0 0.329,0.043 0.474,0.111 0.04,0.017 0.071,0.049 0.109,0.072 0.105,0.064 0.199,0.138 0.278,0.231 0.016,0.019 0.039,0.025 0.053,0.044 0.027,0.036 0.033,0.079 0.055,0.117 0.041,0.069 0.076,0.136 0.101,0.212 0.025,0.075 0.037,0.148 0.046,0.226"
             style="fill:#ffffff;fill-opacity:1;fill-rule:nonzero;stroke:none"
             id="path192" />
        </g>
        <g
           id="g194"
           transform="translate(158.0552,130.5869)">
          <path
             d="M 0,0 0.006,0.012 C 0.004,0.008 0.002,0.005 0,0 m -6.275,-17.525 4.578,13.242 C -1.93,-4.728 11.305,-9.94 11.305,-9.94 L 0.7,1.336 c 0,0 -0.018,-0.035 -0.052,-0.099 L 0.7,1.336 -36.759,11.586 Z"
             style="fill:#ff769b;fill-opacity:1;fill-rule:nonzero;stroke:none"
             id="path196" />
        </g>
        <g
           id="g198"
           transform="translate(169.3604,120.6465)">
          <path
             d="m 0,0 -7.934,16.083 -40.13,5.443 37.459,-10.25 z"
             style="fill:#f15381;fill-opacity:1;fill-rule:nonzero;stroke:none"
             id="path200" />
        </g>
        <g
           id="g202"
           transform="translate(161.4263,136.7295)">
          <path
             d="M 0,0 8.238,10.231 -40.13,5.443 Z"
             style="fill:#ff769b;fill-opacity:1;fill-rule:nonzero;stroke:none"
             id="path204" />
        </g>
        <g
           id="g206"
           transform="translate(177.7002,119.4023)">
          <path
             d="m 0,0 c -0.327,-0.123 -0.703,-0.118 -1.045,0.042 -1.314,0.619 -2.042,1.015 -2.072,1.031 -0.652,0.355 -0.891,1.171 -0.536,1.823 0.354,0.651 1.17,0.892 1.822,0.537 C -1.824,3.429 -1.134,3.054 0.1,2.474 0.771,2.157 1.059,1.356 0.743,0.686 0.588,0.355 0.316,0.118 0,0"
             style="fill:#ffffff;fill-opacity:1;fill-rule:nonzero;stroke:none"
             id="path208" />
        </g>
        <g
           id="g210"
           transform="translate(255.7891,157.7939)">
          <path
             d="m 0,0 c -0.266,-0.1 -0.564,-0.117 -0.857,-0.029 -0.711,0.213 -1.115,0.962 -0.902,1.673 0.441,1.468 0.855,2.919 1.246,4.344 0.196,0.716 0.935,1.136 1.651,0.941 C 1.854,6.732 2.275,5.992 2.078,5.277 1.682,3.833 1.261,2.362 0.815,0.872 0.689,0.454 0.379,0.143 0,0 m -4.433,-12.911 c -0.3,-0.112 -0.642,-0.118 -0.964,0.009 -0.691,0.272 -1.03,1.051 -0.758,1.742 0.533,1.351 1.067,2.772 1.587,4.222 0.251,0.699 1.019,1.062 1.718,0.81 0.699,-0.25 1.062,-1.019 0.811,-1.718 -0.529,-1.476 -1.072,-2.922 -1.616,-4.3 -0.145,-0.368 -0.434,-0.636 -0.778,-0.765 m -60.886,-30.217 c -0.259,-0.098 -0.55,-0.116 -0.837,-0.035 -1.466,0.414 -2.949,0.876 -4.409,1.374 -0.703,0.239 -1.078,1.002 -0.838,1.704 0.238,0.703 1.002,1.078 1.704,0.839 1.416,-0.482 2.853,-0.93 4.273,-1.331 0.715,-0.201 1.13,-0.944 0.928,-1.658 -0.121,-0.428 -0.435,-0.748 -0.821,-0.893 m 55.117,17.862 c -0.358,-0.134 -0.769,-0.116 -1.129,0.084 -0.647,0.363 -0.879,1.181 -0.517,1.829 0.7,1.253 1.399,2.588 2.078,3.968 0.327,0.665 1.132,0.939 1.798,0.612 0.666,-0.328 0.941,-1.133 0.613,-1.799 -0.699,-1.42 -1.42,-2.798 -2.143,-4.092 -0.162,-0.288 -0.414,-0.494 -0.7,-0.602 m -41.74,-20.436 c -0.186,-0.07 -0.391,-0.1 -0.603,-0.079 -1.504,0.147 -3.049,0.349 -4.593,0.601 -0.732,0.119 -1.229,0.81 -1.109,1.542 0.12,0.733 0.811,1.229 1.542,1.11 1.487,-0.243 2.975,-0.438 4.421,-0.578 0.74,-0.074 1.279,-0.73 1.207,-1.469 -0.051,-0.527 -0.401,-0.952 -0.865,-1.127 m 33.819,9.373 c -0.468,-0.176 -1.017,-0.082 -1.403,0.288 -0.535,0.515 -0.553,1.364 -0.039,1.899 0.966,1.008 1.93,2.132 2.863,3.341 0.452,0.589 1.297,0.697 1.884,0.242 0.588,-0.452 0.696,-1.296 0.243,-1.883 -0.992,-1.286 -2.018,-2.483 -3.051,-3.559 -0.144,-0.15 -0.314,-0.259 -0.497,-0.328 m -20.21,-9.217 c -0.095,-0.035 -0.195,-0.06 -0.3,-0.074 -1.512,-0.199 -3.072,-0.338 -4.636,-0.413 -0.741,-0.035 -1.371,0.536 -1.406,1.278 -0.036,0.74 0.537,1.368 1.277,1.405 1.491,0.072 2.977,0.204 4.416,0.394 0.735,0.097 1.41,-0.422 1.506,-1.157 0.083,-0.631 -0.286,-1.218 -0.857,-1.433 m 10.774,2.665 c -0.658,-0.247 -1.317,-0.478 -1.976,-0.694 -0.706,-0.23 -1.465,0.155 -1.694,0.861 -0.23,0.705 0.153,1.439 0.86,1.694 1.339,0.437 2.686,0.924 3.999,1.611 0.662,0.331 1.47,0.087 1.813,-0.571 0.343,-0.659 0.087,-1.469 -0.57,-1.813 -0.8,-0.416 -1.617,-0.782 -2.432,-1.088"
             style="fill:#ffffff;fill-opacity:1;fill-rule:nonzero;stroke:none"
             id="path212" />
        </g>
        <g
           id="g214"
           transform="translate(254.3774,242.752)">
          <path
             d="m 0,0 c 0,0 9.031,-45.23 43.961,-58.441 0,0 5.822,4.702 9.853,3.806 4.03,-0.895 11.419,-9.628 11.419,-9.628 H 42.394 c 0,0 -37.393,3.582 -56.65,40.08 l -1.119,13.659 z"
             style="fill:#ffc7ca;fill-opacity:1;fill-rule:nonzero;stroke:none"
             id="path216" />
        </g>
        <g
           id="g218"
           transform="translate(234.6733,281.2646)">
          <path
             d="m 0,0 c 0,0 22.689,-28.885 25.376,-36.497 0,0 -14.33,-11.868 -18.808,-15.899 0,0 -16.994,33.294 -14.107,42.544 C -4.852,-1.245 0,0 0,0"
             style="fill:#f15381;fill-opacity:1;fill-rule:nonzero;stroke:none"
             id="path220" />
        </g>
        <g
           id="g222"
           transform="translate(200.3398,288.7285)">
          <path
             d="m 0,0 c 0,0 -34.333,-4.777 -40.304,-27.466 -5.971,-22.69 40.528,-91.058 40.528,-91.058 h 53.814 c 0,0 -13.137,106.88 -19.705,111.06 C 27.765,-3.284 19.107,3.881 0,0"
             style="fill:#ff769b;fill-opacity:1;fill-rule:nonzero;stroke:none"
             id="path224" />
        </g>
        <g
           id="g226"
           transform="translate(218.8501,301.8647)">
          <path
             d="m 0,0 -1.288,-20.984 c -4.845,-2.991 -22.295,2.776 -22.295,2.776 L -21.2,4.836 Z"
             style="fill:#ffc7ca;fill-opacity:1;fill-rule:nonzero;stroke:none"
             id="path228" />
        </g>
        <g
           id="g230"
           transform="translate(238.1064,331.4214)">
          <path
             d="M 0,0 C 0,0 -0.634,-43.779 -24.63,-38.065 -52.843,-31.348 -39.856,8.959 -39.856,8.959 Z"
             style="fill:#ffc7ca;fill-opacity:1;fill-rule:nonzero;stroke:none"
             id="path232" />
        </g>
        <g
           id="g234"
           transform="translate(198.25,319.1807)">
          <path
             d="M 0,0 C 0,0 -1.94,4.329 -5.075,2.538 -8.21,0.747 -8.957,-11.523 -0.597,-12.479 Z"
             style="fill:#ffc7ca;fill-opacity:1;fill-rule:nonzero;stroke:none"
             id="path236" />
        </g>
        <g
           id="g238"
           transform="translate(193.1748,321.7183)">
          <path
             d="M 0,0 C 0,0 4.627,0.747 6.195,-3.508 L 8.658,12.39 c 0,0 15.725,-4.478 24.32,0 0,0 6.524,-8.603 11.478,-9.452 4.954,-0.848 12.288,19.528 0,23.559 0,0 -27.388,33.586 -43.013,0 0,0 -10.251,-0.672 -11.594,-12.987 -1.343,-12.316 8.021,-20.801 8.021,-20.801 0,0 -0.259,6.097 2.13,7.291"
             style="fill:#2b2c84;fill-opacity:1;fill-rule:nonzero;stroke:none"
             id="path240" />
        </g>
        <g
           id="g242"
           transform="translate(198.0259,205.582)">
          <path
             d="m 0,0 c 0,0 30.453,-31.124 60.457,-31.124 h 31.348 28.213 c 0,0 -13.883,18.138 -20.601,15.562 -6.717,-2.575 -11.195,-6.381 -11.195,-6.381 0,0 -42.841,8.119 -69.561,39.885 C 18.661,17.942 5.704,17.91 0,0"
             style="fill:#ffc7ca;fill-opacity:1;fill-rule:nonzero;stroke:none"
             id="path244" />
        </g>
        <g
           id="g246"
           transform="translate(160.0356,261.2622)">
          <path
             d="m 0,0 c 0,0 0.597,-42.394 37.02,-61.501 0,0 14.481,21.552 19.631,23.763 0,0 -17.899,40.665 -29.781,48.486 C 20.826,14.725 8.359,13.435 0,0"
             style="fill:#f15381;fill-opacity:1;fill-rule:nonzero;stroke:none"
             id="path248" />
        </g>
        <g
           id="g250"
           transform="translate(256.7661,174.458)">
          <path
             d="m 0,0 c 0,0 -1.493,-1.567 -1.344,-4.254 h 96.581 c 0,0 -1.045,4.03 -2.388,4.254 z"
             style="fill:#2b2c84;fill-opacity:1;fill-rule:nonzero;stroke:none"
             id="path252" />
        </g>
        <g
           id="g254"
           transform="translate(318.0435,170.2041)">
          <path
             d="M 0,0 25.153,77.922 H 63.367 L 37.991,0 Z"
             style="fill:#0052ff;fill-opacity:1;fill-rule:nonzero;stroke:none"
             id="path256" />
        </g>
        <g
           id="g258"
           transform="translate(361.7163,212.0107)">
          <path
             d="m 0,0 c -0.747,-3.063 -2.911,-5.167 -4.833,-4.698 -1.923,0.469 -2.875,3.332 -2.128,6.395 0.747,3.065 2.911,5.168 4.834,4.699 C -0.205,5.927 0.747,3.063 0,0"
             style="fill:#ffffff;fill-opacity:1;fill-rule:nonzero;stroke:none"
             id="path260" />
        </g>
        <g
           id="g262"
           transform="translate(396.9604,160.3516)">
          <path
             d="m 0,0 h -283.539 c 0,5.441 4.412,9.853 9.853,9.853 H -9.852 C -4.411,9.853 0,5.441 0,0"
             style="fill:#009aff;fill-opacity:1;fill-rule:nonzero;stroke:none"
             id="path264" />
        </g>
        <g
           id="g266"
           transform="translate(197.4897,170.2041)">
          <path
             d="m 0,0 h -45.501 c -4.7,0 -8.509,3.81 -8.509,8.509 0,4.699 3.809,8.509 8.509,8.509 H 0 Z"
             style="fill:#ff9a00;fill-opacity:1;fill-rule:nonzero;stroke:none"
             id="path268" />
        </g>
        <g
           id="g270"
           transform="translate(197.4902,174.9629)">
          <path
             d="m 0,0 h -46.194 c -2.071,0 -3.749,1.679 -3.749,3.75 0,2.071 1.678,3.749 3.749,3.749 L 0,7.499 Z"
             style="fill:#ffffff;fill-opacity:1;fill-rule:nonzero;stroke:none"
             id="path272" />
        </g>
        <g
           id="g274"
           transform="translate(197.4897,187.2217)">
          <path
             d="m 0,0 h -45.501 c -4.7,0 -8.509,3.81 -8.509,8.509 0,4.699 3.809,8.509 8.509,8.509 H 0 Z"
             style="fill:#008489;fill-opacity:1;fill-rule:nonzero;stroke:none"
             id="path276" />
        </g>
        <g
           id="g278"
           transform="translate(197.4902,191.9805)">
          <path
             d="m 0,0 h -46.194 c -2.071,0 -3.749,1.679 -3.749,3.75 0,2.07 1.678,3.749 3.749,3.749 L 0,7.499 Z"
             style="fill:#ffffff;fill-opacity:1;fill-rule:nonzero;stroke:none"
             id="path280" />
        </g>
        <g
           id="g282"
           transform="translate(147.8638,266.8003)">
          <path
             d="M 0,0 0.492,-1.57 0.983,0 C 1.616,2.021 2.93,3.712 4.664,4.736 2.93,5.759 1.616,7.45 0.983,9.471 L 0.492,11.042 0,9.471 C -0.632,7.45 -1.946,5.759 -3.681,4.736 -1.946,3.712 -0.632,2.021 0,0"
             style="fill:#ff9a00;fill-opacity:1;fill-rule:nonzero;stroke:none"
             id="path284" />
        </g>
        <g
           id="g286"
           transform="translate(249.6685,287.4585)">
          <path
             d="M 0,0 0.929,-2.969 1.858,0 C 3.055,3.822 5.54,7.02 8.819,8.955 5.54,10.891 3.055,14.088 1.858,17.91 L 0.929,20.879 0,17.91 C -1.196,14.088 -3.681,10.891 -6.961,8.955 -3.681,7.02 -1.196,3.822 0,0"
             style="fill:#ff9a00;fill-opacity:1;fill-rule:nonzero;stroke:none"
             id="path288" />
        </g>
        <g
           id="g290"
           transform="translate(315.1675,224.0527)">
          <path
             d="M 0,0 0.929,-2.969 1.858,0 C 3.055,3.823 5.54,7.02 8.819,8.956 5.54,10.892 3.055,14.088 1.858,17.911 L 0.929,20.88 0,17.911 C -1.196,14.088 -3.681,10.892 -6.961,8.956 -3.681,7.02 -1.196,3.823 0,0"
             style="fill:#ff9a00;fill-opacity:1;fill-rule:nonzero;stroke:none"
             id="path292" />
        </g>
        <g
           id="g294"
           transform="translate(299.7896,204.7529)">
          <path
             d="M 0,0 0.609,-1.945 1.217,0 C 2.001,2.505 3.629,4.6 5.778,5.867 3.629,7.136 2.001,9.23 1.217,11.734 L 0.609,13.68 0,11.734 C -0.784,9.23 -2.412,7.136 -4.561,5.867 -2.412,4.6 -0.784,2.505 0,0"
             style="fill:#ff9a00;fill-opacity:1;fill-rule:nonzero;stroke:none"
             id="path296" />
        </g>
        <g
           id="g298"
           transform="translate(261.4839,324.7124)">
          <path
             d="M 0,0 0.609,-1.945 1.217,0 C 2.001,2.504 3.629,4.599 5.778,5.867 3.629,7.135 2.001,9.23 1.217,11.734 L 0.609,13.679 0,11.734 C -0.784,9.23 -2.412,7.135 -4.561,5.867 -2.412,4.599 -0.784,2.504 0,0"
             style="fill:#ff9a00;fill-opacity:1;fill-rule:nonzero;stroke:none"
             id="path300" />
        </g>
        <g
           id="g302"
           transform="translate(106.6328,277.1484)">
          <path
             d="M 0,0 0.857,-2.74 1.715,0 C 2.819,3.527 5.112,6.478 8.139,8.264 5.112,10.05 2.819,13 1.715,16.528 L 0.857,19.268 0,16.528 C -1.104,13 -3.397,10.05 -6.423,8.264 -3.397,6.478 -1.104,3.527 0,0"
             style="fill:#ff9a00;fill-opacity:1;fill-rule:nonzero;stroke:none"
             id="path304" />
        </g>
        <path
           d="m 461.239,255.801 h -66.278 v 81.226 h 66.278 z"
           style="fill:#ffd234;fill-opacity:1;fill-rule:nonzero;stroke:none"
           id="path306" />
        <g
           id="g308"
           transform="translate(468.7002,328.2134)">
          <path
             d="M 0,0 V -5.875 H -7.461 V 8.813 C -3.224,8.115 0,4.434 0,0"
             style="fill:#ecaf0b;fill-opacity:1;fill-rule:nonzero;stroke:none"
             id="path310" />
        </g>
        <path
           d="m 412.948,303.034 h -10.495 v 10.495 h 10.495 z"
           style="fill:#ecaf0b;fill-opacity:1;fill-rule:nonzero;stroke:none"
           id="path312" />
        <path
           d="m 453.748,310.913 h -35.603 v 2.616 h 35.603 z"
           style="fill:#2b2c84;fill-opacity:1;fill-rule:nonzero;stroke:none"
           id="path314" />
        <path
           d="m 453.748,303.034 h -35.603 v 2.616 h 35.603 z"
           style="fill:#2b2c84;fill-opacity:1;fill-rule:nonzero;stroke:none"
           id="path316" />
        <path
           d="m 412.948,279.299 h -10.495 v 10.495 h 10.495 z"
           style="fill:#ecaf0b;fill-opacity:1;fill-rule:nonzero;stroke:none"
           id="path318" />
        <path
           d="m 453.748,287.178 h -35.603 v 2.616 h 35.603 z"
           style="fill:#2b2c84;fill-opacity:1;fill-rule:nonzero;stroke:none"
           id="path320" />
        <path
           d="m 453.748,279.299 h -35.603 v 2.616 h 35.603 z"
           style="fill:#2b2c84;fill-opacity:1;fill-rule:nonzero;stroke:none"
           id="path322" />
        <g
           id="g324"
           transform="translate(408.5962,306.1069)">
          <path
             d="m 0,0 -4.363,3.771 1.758,2.033 2.242,-1.938 4.559,5.745 2.105,-1.67 z"
             style="fill:#ffffff;fill-opacity:1;fill-rule:nonzero;stroke:none"
             id="path326" />
        </g>
        <g
           id="g328"
           transform="translate(408.5962,282.9692)">
          <path
             d="m 0,0 -4.363,3.771 1.758,2.033 2.242,-1.938 4.559,5.745 2.105,-1.67 z"
             style="fill:#ffffff;fill-opacity:1;fill-rule:nonzero;stroke:none"
             id="path330" />
        </g>
      </g>
    </g>
    <text
       xml:space="preserve"
       transform="matrix(1,0,0,-1,188.7676,450.5068)"
       style="font-variant:normal;font-weight:bold;font-stretch:normal;font-size:15.8368px;font-family:'Riffic Medium';-inkscape-font-specification:Riffic-Bold;writing-mode:lr-tb;fill:#2b2c84;fill-opacity:1;fill-rule:nonzero;stroke:none"
       id="text334"><tspan
         sodipodi:role="line"
         id="tspan332"
         x="0"
         y="0" /></text>
    <text
       xml:space="preserve"
       transform="matrix(0.75000002,0,0,-0.75000002,0,500.00002)"
       id="text638"
       style="fill:#cc00ff;white-space:pre;shape-inside:url(#rect640)" />
    <text
       xml:space="preserve"
       transform="matrix(0.75000002,0,0,-0.75000002,0,500.00002)"
       id="text644"
       style="fill:#cc00ff;white-space:pre;shape-inside:url(#rect646)" />
  </g>
</svg>
